<?xml version="1.0" encoding="UTF-8" standalone="no"?>
<svg
   viewBox="0 0 191.99999 192"
   role="img"
   aria-labelledby="title desc"
   version="1.1"
   id="svg19"
   xml:space="preserve"
   width="192"
   height="192"
   xmlns:xlink="http://www.w3.org/1999/xlink"
   xmlns="http://www.w3.org/2000/svg"
   xmlns:svg="http://www.w3.org/2000/svg"
   xmlns:rdf="http://www.w3.org/1999/02/22-rdf-syntax-ns#"
   xmlns:cc="http://creativecommons.org/ns#"
   xmlns:dc="http://purl.org/dc/elements/1.1/"><title
     id="title">Peregrine Systems logo concept</title><desc
     id="desc">A stylized peregrine falcon head facing right with a single downward sweeping wing, above the words Peregrine Systems.</desc><defs
     id="defs5"><linearGradient
       id="swatch98"><stop
         style="stop-color:#000000;stop-opacity:1;"
         offset="0"
         id="stop98" /></linearGradient><linearGradient
       id="swatch97"><stop
         style="stop-color:#000000;stop-opacity:1;"
         offset="0"
         id="stop97" /></linearGradient><linearGradient
       id="swatch95"><stop
         style="stop-color:#ffffff;stop-opacity:1;"
         offset="0"
         id="stop95" /></linearGradient><linearGradient
       id="swatch94"><stop
         style="stop-color:#ffffff;stop-opacity:1;"
         offset="0"
         id="stop94" /></linearGradient><linearGradient
       id="swatch89"><stop
         style="stop-color:#000000;stop-opacity:1;"
         offset="0"
         id="stop89" /></linearGradient><linearGradient
       id="swatch88"><stop
         style="stop-color:#000000;stop-opacity:1;"
         offset="0"
         id="stop88" /></linearGradient><linearGradient
       id="swatch54"><stop
         style="stop-color:#000000;stop-opacity:1;"
         offset="0"
         id="stop54" /></linearGradient><linearGradient
       id="linearGradient51"><stop
         style="stop-color:#58627a;stop-opacity:0.48198199;"
         offset="0"
         id="stop50" /></linearGradient><linearGradient
       id="swatch46"><stop
         style="stop-color:#000000;stop-opacity:1;"
         offset="0"
         id="stop46" /></linearGradient><linearGradient
       id="swatch45"><stop
         style="stop-color:#000000;stop-opacity:1;"
         offset="0"
         id="stop45" /></linearGradient><linearGradient
       id="swatch41"><stop
         style="stop-color:#000000;stop-opacity:1;"
         offset="0"
         id="stop41" /></linearGradient><linearGradient
       id="swatch40"><stop
         style="stop-color:#58627a;stop-opacity:0.48198199;"
         offset="0"
         id="stop40" /></linearGradient><linearGradient
       id="swatch15"><stop
         style="stop-color:#d9cda9;stop-opacity:1;"
         offset="0"
         id="stop15" /></linearGradient><linearGradient
       id="swatch14"><stop
         style="stop-color:#e8d9a8;stop-opacity:1;"
         offset="0"
         id="stop14" /></linearGradient><linearGradient
       id="swatch13"><stop
         style="stop-color:#d4a841;stop-opacity:1;"
         offset="0"
         id="stop13" /></linearGradient><linearGradient
       id="swatch12"><stop
         style="stop-color:#b8923a;stop-opacity:1;"
         offset="0"
         id="stop12" /></linearGradient><linearGradient
       id="swatch11"><stop
         style="stop-color:#58627a;stop-opacity:1;"
         offset="0"
         id="stop11" /></linearGradient><linearGradient
       id="swatch10"><stop
         style="stop-color:#2a3447;stop-opacity:1;"
         offset="0"
         id="stop10" /></linearGradient><linearGradient
       id="swatch9"><stop
         style="stop-color:#0e1726;stop-opacity:1;"
         offset="0"
         id="stop9" /></linearGradient><linearGradient
       id="swatch8"><stop
         style="stop-color:#f0e9d6;stop-opacity:1;"
         offset="0"
         id="stop8" /></linearGradient><linearGradient
       id="swatch7"><stop
         style="stop-color:#f5f0e3;stop-opacity:1;"
         offset="0"
         id="stop7" /></linearGradient><linearGradient
       id="swatch1"><stop
         style="stop-color:#fbfaf5;stop-opacity:1;"
         offset="0"
         id="stop6" /></linearGradient><style
       id="style5">
      .outline{stroke:#f4f7fb;stroke-width:14;stroke-linejoin:round;stroke-linecap:round;}
      .thin{stroke:#f4f7fb;stroke-width:8;stroke-linejoin:round;stroke-linecap:round;}
      .navy{fill:url(#deepNavy);}
      .blue{fill:url(#wingBlue);}
      .white{fill:#f4f7fb;}
      .silver{fill:#b9c4cf;}
      .word{font-family:Montserrat, Avenir Next, Arial, sans-serif;font-weight:800;letter-spacing:5px;}
      .sub{font-family:Montserrat, Avenir Next, Arial, sans-serif;font-weight:500;letter-spacing:16px;}
    </style><linearGradient
       xlink:href="#swatch13"
       id="linearGradient98"
       x1="337.96484"
       y1="686.97192"
       x2="527.80841"
       y2="686.97192"
       gradientUnits="userSpaceOnUse" /><linearGradient
       xlink:href="#swatch11"
       id="linearGradient99"
       x1="337.96484"
       y1="714.74121"
       x2="419.80707"
       y2="714.74121"
       gradientUnits="userSpaceOnUse" /></defs><!-- Falcon and wing mark --><!-- Wordmark --><metadata
     id="metadata20"><rdf:RDF><cc:Work
         rdf:about=""><dc:title>Peregrine Systems logo concept</dc:title></cc:Work></rdf:RDF></metadata><g
     id="layer8"
     transform="translate(-338.44703,-589.14851)"><path
       d="m 337.96484,638.98828 18.92774,7.23828 c 0,0 70.40776,-7.46486 73.2207,-2.03906 1.19945,2.31373 -13.52435,0.8192 -27.60742,3.98242 -14.45479,3.24675 -26.34375,8.84766 -26.34375,8.84766 0,0 12.47649,8.3382 18.35156,14.05078 5.80692,5.64637 16.35938,19.64453 16.35938,19.64453 0,0 32.65282,-15.70107 26.61718,-10.21289 -9.88448,8.98804 -13.11328,30.66406 -13.11328,30.66406 0,0 13.16089,-6.42107 31.58789,-11.80469 17.53777,-5.12377 39.14265,-3.67654 32.85743,-2.03515 -6.2364,1.62866 -15.3842,2.98645 -32.5293,13.95508 -19.8263,12.68387 -35.03516,37.20508 -35.03516,37.20507 l 20.76953,7.78907 c 0,0 8.43337,-20.0809 21.68164,-31.73633 8.12715,-7.14997 16.23507,-13.15385 22.61719,-15.87695 4.58632,-1.95682 19.61808,-7.46693 27.14258,-1.83789 4.16962,3.11933 7.33456,9.41146 5.25391,16.42773 9.21339,-13.84827 9.99477,-23.36135 8.4707,-35.62695 -0.50734,-4.08274 -5.18707,-14.63395 -15.69922,-19.75977 1.35322,-9.20247 -4.2662,-16.87489 -8.34961,-22.05859 -12.57486,-15.96293 -33.296,-22.99782 -41.75976,-24.98242 -19.2941,-4.52421 -38.85266,-3.32255 -51.58594,-1.6504 -18.71356,2.45753 -36.72112,6.49192 -55.57031,9.53907 -4.2579,0.68831 -10.49015,1.61513 -16.26368,2.45508 z"
       style="opacity:1;fill:url(#linearGradient98);stroke:none"
       id="path97" /><path
       d="m 337.96484,764.53125 c 19.75375,-6.33516 42.2964,-14.19508 60.65821,-10.40234 13.95623,2.88271 17.39843,25.23437 17.39843,25.23437 0,0 6.23755,-36.58171 2.69922,-51.53711 -5.57361,-23.55807 -17.60272,-36.2001 -32.31836,-50.09961 -15.88244,-15.00162 -33.89773,-22.46924 -48.4375,-27.60742 v 93.29102 z"
       style="opacity:1;fill:url(#linearGradient99)"
       id="path96" /><path
       d="m 337.96484,588.78906 v 42.37696 c 5.77353,-0.83995 12.00578,-1.76677 16.26368,-2.45508 18.84919,-3.04715 36.85675,-7.08154 55.57031,-9.53907 12.73328,-1.67215 32.29184,-2.87381 51.58594,1.6504 8.46376,1.9846 29.1849,9.01949 41.75976,24.98242 4.08341,5.1837 9.70283,12.85612 8.34961,22.05859 10.51215,5.12582 15.19188,15.67703 15.69922,19.75977 1.52407,12.2656 0.74269,21.77868 -8.4707,35.62695 2.08065,-7.01627 -1.08429,-13.3084 -5.25391,-16.42773 -7.5245,-5.62904 -22.55626,-0.11893 -27.14258,1.83789 -6.38212,2.7231 -14.49004,8.72698 -22.61719,15.87695 -13.24827,11.65543 -21.68164,31.73633 -21.68164,31.73633 l -20.76953,-7.78907 c 0,10e-6 15.20886,-24.5212 35.03516,-37.20507 17.1451,-10.96863 26.2929,-12.32642 32.5293,-13.95508 6.28522,-1.64139 -15.31966,-3.08862 -32.85743,2.03515 -18.427,5.38362 -31.58789,11.80469 -31.58789,11.80469 0,0 3.2288,-21.67602 13.11328,-30.66406 6.03564,-5.48818 -26.61718,10.21289 -26.61718,10.21289 0,0 -10.55246,-13.99816 -16.35938,-19.64453 -5.87507,-5.71258 -18.35156,-14.05078 -18.35156,-14.05078 0,0 11.88896,-5.60091 26.34375,-8.84766 14.08307,-3.16322 28.80687,-1.66869 27.60742,-3.98242 -2.81294,-5.4258 -73.2207,2.03906 -73.2207,2.03906 l -18.92774,-7.23828 v 11.13086 c 14.53977,5.13818 32.55506,12.6058 48.4375,27.60742 14.71564,13.89951 26.74475,26.54154 32.31836,50.09961 3.53833,14.9554 -2.69922,51.53711 -2.69922,51.53711 0,0 -3.4422,-22.35166 -17.39843,-25.23437 -18.36181,-3.79274 -40.90446,4.06718 -60.65821,10.40234 v 16.25781 h 192 v -192 z"
       style="opacity:0;fill:none"
       id="path95" /></g></svg>
